<svg width="1920" height="135" viewBox="0 0 1920 135" fill="none" xmlns="http://www.w3.org/2000/svg">
<g clip-path="url(#clip0_169_81)">
<rect width="1920" height="134.667" fill="white"/>
<path fill-rule="evenodd" clip-rule="evenodd" d="M588.276 135.517H544.102V23.7072H588.276V135.517ZM658.313 135.517H614.139V23.7072H664.29L725.873 134.662V23.7072H770.047V135.517H680.998L658.313 94.6453V135.517ZM885.21 135.517H841.036V67.3614H789.067V23.7072H937.179V67.3614H885.21V135.517ZM1085.2 135.517H1008.75C991.408 132.075 977.632 125.64 967.419 116.213C956.332 105.646 950.789 92.5666 950.789 76.9758C950.789 60.3456 956.765 46.7469 968.718 36.1798C980.671 25.6127 996.002 20.3292 1014.71 20.3292C1030.82 20.3292 1045.37 24.4001 1058.37 32.542C1071.36 40.6838 1080.71 51.5974 1086.43 65.2827L1043.29 80.6136C1040.87 74.897 1037.14 70.393 1032.12 67.1016C1027.27 63.8102 1021.9 62.1645 1016.01 62.1645C1010.47 62.1645 1005.88 63.5503 1002.24 66.322C998.774 68.9205 997.041 72.2985 997.041 76.4561C997.041 80.4404 999.034 83.6452 1003.02 86.0704C1007.18 88.4956 1013.76 90.4012 1022.77 91.787C1043.03 95.2516 1058.97 102.441 1070.58 113.354C1077.54 119.9 1082.41 127.288 1085.2 135.517ZM362.666 135.517V23.7072H406.84V92.5666H413.856L468.164 23.7072H524.551L451.534 114.654L468.284 135.517H362.666ZM1537.07 135.517H1492.9V23.7072H1537.07V135.517ZM1470.65 135.517H1365.03V97.2438H1471.05C1471.74 101.748 1472.09 108.677 1472.09 118.032C1472.09 124.096 1471.61 129.924 1470.65 135.517ZM1330.94 135.517H1284.85C1283.56 128.813 1282.92 121.772 1282.92 114.394C1282.92 86.6767 1292.01 63.8102 1310.2 45.7942C1328.57 27.6049 1351 18.5103 1377.5 18.5103C1395.87 18.5103 1412.58 23.0143 1427.65 32.0223C1442.9 41.0303 1454.33 53.2431 1461.95 68.6607L1422.2 89.4484C1418.04 81.1333 1411.98 74.6371 1404.01 69.9599C1396.04 65.1094 1387.2 62.6842 1377.5 62.6842C1363.47 62.6842 1351.52 67.5347 1341.64 77.2356C1331.94 86.9365 1327.09 99.3226 1327.09 114.394C1327.09 122.145 1328.38 129.186 1330.94 135.517ZM1261.92 135.517H1217.4C1217.7 133.271 1217.85 130.907 1217.85 128.425V23.7072H1262.02V131.024C1262.02 132.539 1261.99 134.037 1261.92 135.517ZM1153.33 135.517H1108.81C1108.74 134.037 1108.71 132.539 1108.71 131.024V23.7072H1152.88V128.425C1152.88 130.907 1153.03 133.271 1153.33 135.517Z" fill="#1D1C22"/>
</g>
<defs>
<clipPath id="clip0_169_81">
<rect width="1920" height="134.667" fill="white"/>
</clipPath>
</defs>
</svg>
