<svg width="4778" height="72" viewBox="0 0 4778 72" fill="none" xmlns="http://www.w3.org/2000/svg">
<rect width="4778" height="72" fill="#444444"/>
<path d="M22.3182 59L30.7727 12.4545H37.1364L28.6818 59H22.3182ZM1.54545 47L2.72727 40.6364H38.5455L37.3636 47H1.54545ZM5.95455 59L14.4091 12.4545H20.7727L12.3182 59H5.95455ZM4.54545 30.8182L5.70455 24.4545H41.5227L40.3636 30.8182H4.54545ZM40.3093 59L48.0366 12.4545H56.4684L52.9457 33.8409H53.5139L75.1957 12.4545H85.4911L64.0593 33.3409L77.923 59H67.7866L57.2866 39.0455L51.0593 45.1818L48.7411 59H40.3093ZM97.2209 12.4545L89.4936 59H81.0618L88.7891 12.4545H97.2209ZM142.042 12.4545L134.314 59H126.814L110.155 27.2955H109.792L104.496 59H96.0643L103.792 12.4545H111.337L127.973 44.1818H128.405L133.655 12.4545H142.042ZM145.442 19.5227L146.624 12.4545H183.76L182.578 19.5227H168.192L161.646 59H153.283L159.828 19.5227H145.442ZM211.473 25.4773C211.533 23.3712 210.889 21.7576 209.541 20.6364C208.208 19.5152 206.291 18.9545 203.791 18.9545C202.033 18.9545 200.48 19.2197 199.132 19.75C197.798 20.2652 196.723 20.9848 195.905 21.9091C195.086 22.8182 194.579 23.8561 194.382 25.0227C194.215 25.9773 194.298 26.8106 194.632 27.5227C194.965 28.2348 195.473 28.8409 196.155 29.3409C196.852 29.8409 197.639 30.2576 198.518 30.5909C199.412 30.9242 200.321 31.2045 201.245 31.4318L205.427 32.5227C207.094 32.9318 208.685 33.4848 210.2 34.1818C211.715 34.8636 213.026 35.7424 214.132 36.8182C215.253 37.8788 216.071 39.1591 216.586 40.6591C217.102 42.1591 217.185 43.9167 216.836 45.9318C216.382 48.6591 215.283 51.0606 213.541 53.1364C211.814 55.197 209.541 56.8106 206.723 57.9773C203.92 59.1288 200.655 59.7045 196.927 59.7045C193.321 59.7045 190.276 59.1439 187.791 58.0227C185.306 56.8864 183.488 55.2424 182.336 53.0909C181.2 50.9394 180.836 48.3258 181.245 45.25H189.541C189.374 46.8712 189.639 48.2197 190.336 49.2955C191.048 50.3712 192.071 51.1742 193.405 51.7045C194.738 52.2348 196.283 52.5 198.041 52.5C199.874 52.5 201.533 52.2273 203.018 51.6818C204.503 51.1212 205.715 50.3485 206.655 49.3636C207.609 48.3636 208.192 47.197 208.405 45.8636C208.617 44.6667 208.442 43.6667 207.882 42.8636C207.321 42.0606 206.45 41.3939 205.268 40.8636C204.102 40.3182 202.708 39.8333 201.086 39.4091L196.041 38.0455C192.389 37.0455 189.617 35.5455 187.723 33.5455C185.844 31.5455 185.177 28.8788 185.723 25.5455C186.177 22.7879 187.321 20.3864 189.155 18.3409C190.988 16.2803 193.283 14.6818 196.041 13.5455C198.798 12.3939 201.814 11.8182 205.086 11.8182C208.389 11.8182 211.185 12.3939 213.473 13.5455C215.776 14.697 217.458 16.303 218.518 18.3636C219.594 20.4091 219.95 22.7803 219.586 25.4773H211.473ZM256.702 12.4545H265.134L260.089 42.8636C259.543 46.197 258.271 49.1288 256.271 51.6591C254.286 54.1894 251.756 56.1667 248.68 57.5909C245.604 59 242.18 59.7045 238.407 59.7045C234.604 59.7045 231.407 59 228.816 57.5909C226.225 56.1667 224.354 54.1894 223.202 51.6591C222.066 49.1288 221.771 46.197 222.316 42.8636L227.362 12.4545H235.793L230.862 42.1591C230.543 44.0985 230.687 45.8258 231.293 47.3409C231.915 48.8409 232.93 50.0227 234.339 50.8864C235.763 51.75 237.543 52.1818 239.68 52.1818C241.816 52.1818 243.74 51.75 245.452 50.8864C247.165 50.0227 248.566 48.8409 249.657 47.3409C250.748 45.8258 251.453 44.0985 251.771 42.1591L256.702 12.4545ZM300.421 27.3182C300.254 26.0909 299.951 24.9924 299.512 24.0227C299.072 23.0379 298.482 22.2045 297.739 21.5227C296.997 20.8258 296.095 20.2955 295.035 19.9318C293.974 19.5682 292.739 19.3864 291.33 19.3864C288.83 19.3864 286.459 20.0152 284.216 21.2727C281.974 22.5303 280.057 24.3788 278.466 26.8182C276.875 29.2424 275.792 32.197 275.216 35.6818C274.641 39.197 274.671 42.1742 275.307 44.6136C275.944 47.053 277.11 48.9091 278.807 50.1818C280.519 51.4394 282.671 52.0682 285.262 52.0682C287.641 52.0682 289.8 51.6136 291.739 50.7045C293.678 49.7955 295.285 48.5076 296.557 46.8409C297.845 45.1591 298.663 43.1894 299.012 40.9318L300.875 41.2273H288.216L289.353 34.6364H308.239L307.285 40.2273C306.633 44.2273 305.216 47.6818 303.035 50.5909C300.868 53.4848 298.163 55.7197 294.921 57.2955C291.694 58.8561 288.156 59.6364 284.307 59.6364C280.035 59.6364 276.436 58.6742 273.512 56.75C270.603 54.8106 268.542 52.0606 267.33 48.5C266.118 44.9242 265.921 40.6818 266.739 35.7727C267.345 32.0152 268.421 28.6591 269.966 25.7045C271.527 22.75 273.436 20.2424 275.694 18.1818C277.966 16.1061 280.489 14.5303 283.262 13.4545C286.035 12.3636 288.944 11.8182 291.989 11.8182C294.55 11.8182 296.883 12.197 298.989 12.9545C301.095 13.697 302.898 14.7576 304.398 16.1364C305.913 17.5152 307.072 19.1515 307.875 21.0455C308.678 22.9394 309.057 25.0303 309.012 27.3182H300.421ZM325.923 12.4545L318.196 59H309.764L317.492 12.4545H325.923ZM324.767 59L332.494 12.4545H340.926L337.653 32.1591H359.221L362.494 12.4545H370.949L363.221 59H354.767L358.04 39.2273H336.471L333.199 59H324.767ZM369.832 59L377.559 12.4545H407.832L406.65 19.5227H384.809L382.718 32.1591H402.991L401.809 39.2273H381.536L379.445 51.9318H401.468L400.286 59H369.832ZM412.124 59H403.124L427.238 12.4545H437.647L446.329 59H437.329L431.079 22H430.715L412.124 59ZM415.442 40.75H439.988L438.851 47.5227H414.306L415.442 40.75ZM449.899 59L457.627 12.4545H475.081C478.657 12.4545 481.558 13.0758 483.786 14.3182C486.013 15.5606 487.566 17.303 488.445 19.5455C489.324 21.7727 489.513 24.3712 489.013 27.3409C488.528 30.3106 487.468 32.8939 485.831 35.0909C484.21 37.2727 482.066 38.9621 479.399 40.1591C476.748 41.3561 473.634 41.9545 470.058 41.9545H457.627L458.808 34.9545H470.127C472.218 34.9545 473.975 34.6667 475.399 34.0909C476.824 33.5 477.945 32.6439 478.763 31.5227C479.596 30.3864 480.149 28.9924 480.422 27.3409C480.68 25.6894 480.581 24.2803 480.127 23.1136C479.687 21.9318 478.846 21.0379 477.604 20.4318C476.377 19.8106 474.718 19.5 472.627 19.5H464.899L458.331 59H449.899ZM477.445 37.9091L485.467 59H476.058L468.24 37.9091H477.445ZM493.714 19.5227L494.896 12.4545H532.033L530.851 19.5227H516.464L509.919 59H501.555L508.101 19.5227H493.714Z" fill="#E9FF6B"/>
<path d="M619.651 59L628.106 12.4545H634.47L626.015 59H619.651ZM598.879 47L600.061 40.6364H635.879L634.697 47H598.879ZM603.288 59L611.742 12.4545H618.106L609.651 59H603.288ZM601.879 30.8182L603.038 24.4545H638.856L637.697 30.8182H601.879ZM637.643 59L645.37 12.4545H653.802L650.279 33.8409H650.847L672.529 12.4545H682.824L661.393 33.3409L675.256 59H665.12L654.62 39.0455L648.393 45.1818L646.074 59H637.643ZM694.554 12.4545L686.827 59H678.395L686.122 12.4545H694.554ZM739.375 12.4545L731.648 59H724.148L707.488 27.2955H707.125L701.829 59H693.398L701.125 12.4545H708.67L725.307 44.1818H725.738L730.988 12.4545H739.375ZM742.775 19.5227L743.957 12.4545H781.093L779.911 19.5227H765.525L758.98 59H750.616L757.161 19.5227H742.775ZM808.806 25.4773C808.867 23.3712 808.223 21.7576 806.874 20.6364C805.541 19.5152 803.624 18.9545 801.124 18.9545C799.367 18.9545 797.814 19.2197 796.465 19.75C795.132 20.2652 794.056 20.9848 793.238 21.9091C792.42 22.8182 791.912 23.8561 791.715 25.0227C791.548 25.9773 791.632 26.8106 791.965 27.5227C792.298 28.2348 792.806 28.8409 793.488 29.3409C794.185 29.8409 794.973 30.2576 795.851 30.5909C796.745 30.9242 797.654 31.2045 798.579 31.4318L802.761 32.5227C804.427 32.9318 806.018 33.4848 807.533 34.1818C809.048 34.8636 810.359 35.7424 811.465 36.8182C812.586 37.8788 813.404 39.1591 813.92 40.6591C814.435 42.1591 814.518 43.9167 814.17 45.9318C813.715 48.6591 812.617 51.0606 810.874 53.1364C809.147 55.197 806.874 56.8106 804.056 57.9773C801.253 59.1288 797.988 59.7045 794.261 59.7045C790.654 59.7045 787.609 59.1439 785.124 58.0227C782.639 56.8864 780.821 55.2424 779.67 53.0909C778.533 50.9394 778.17 48.3258 778.579 45.25H786.874C786.707 46.8712 786.973 48.2197 787.67 49.2955C788.382 50.3712 789.404 51.1742 790.738 51.7045C792.071 52.2348 793.617 52.5 795.374 52.5C797.207 52.5 798.867 52.2273 800.351 51.6818C801.836 51.1212 803.048 50.3485 803.988 49.3636C804.942 48.3636 805.526 47.197 805.738 45.8636C805.95 44.6667 805.776 43.6667 805.215 42.8636C804.654 42.0606 803.783 41.3939 802.601 40.8636C801.435 40.3182 800.041 39.8333 798.42 39.4091L793.374 38.0455C789.723 37.0455 786.95 35.5455 785.056 33.5455C783.177 31.5455 782.511 28.8788 783.056 25.5455C783.511 22.7879 784.654 20.3864 786.488 18.3409C788.321 16.2803 790.617 14.6818 793.374 13.5455C796.132 12.3939 799.147 11.8182 802.42 11.8182C805.723 11.8182 808.518 12.3939 810.806 13.5455C813.109 14.697 814.791 16.303 815.851 18.3636C816.927 20.4091 817.283 22.7803 816.92 25.4773H808.806ZM854.036 12.4545H862.468L857.422 42.8636C856.877 46.197 855.604 49.1288 853.604 51.6591C851.619 54.1894 849.089 56.1667 846.013 57.5909C842.937 59 839.513 59.7045 835.74 59.7045C831.937 59.7045 828.74 59 826.149 57.5909C823.558 56.1667 821.687 54.1894 820.536 51.6591C819.399 49.1288 819.104 46.197 819.649 42.8636L824.695 12.4545H833.127L828.195 42.1591C827.877 44.0985 828.021 45.8258 828.627 47.3409C829.248 48.8409 830.263 50.0227 831.672 50.8864C833.096 51.75 834.877 52.1818 837.013 52.1818C839.149 52.1818 841.074 51.75 842.786 50.8864C844.498 50.0227 845.899 48.8409 846.99 47.3409C848.081 45.8258 848.786 44.0985 849.104 42.1591L854.036 12.4545ZM897.754 27.3182C897.587 26.0909 897.284 24.9924 896.845 24.0227C896.406 23.0379 895.815 22.2045 895.072 21.5227C894.33 20.8258 893.428 20.2955 892.368 19.9318C891.307 19.5682 890.072 19.3864 888.663 19.3864C886.163 19.3864 883.792 20.0152 881.55 21.2727C879.307 22.5303 877.391 24.3788 875.8 26.8182C874.209 29.2424 873.125 32.197 872.55 35.6818C871.974 39.197 872.004 42.1742 872.641 44.6136C873.277 47.053 874.444 48.9091 876.141 50.1818C877.853 51.4394 880.004 52.0682 882.595 52.0682C884.974 52.0682 887.133 51.6136 889.072 50.7045C891.012 49.7955 892.618 48.5076 893.891 46.8409C895.178 45.1591 895.997 43.1894 896.345 40.9318L898.209 41.2273H885.55L886.686 34.6364H905.572L904.618 40.2273C903.966 44.2273 902.55 47.6818 900.368 50.5909C898.201 53.4848 895.497 55.7197 892.254 57.2955C889.027 58.8561 885.489 59.6364 881.641 59.6364C877.368 59.6364 873.769 58.6742 870.845 56.75C867.936 54.8106 865.875 52.0606 864.663 48.5C863.451 44.9242 863.254 40.6818 864.072 35.7727C864.678 32.0152 865.754 28.6591 867.3 25.7045C868.86 22.75 870.769 20.2424 873.027 18.1818C875.3 16.1061 877.822 14.5303 880.595 13.4545C883.368 12.3636 886.277 11.8182 889.322 11.8182C891.883 11.8182 894.216 12.197 896.322 12.9545C898.428 13.697 900.231 14.7576 901.731 16.1364C903.247 17.5152 904.406 19.1515 905.209 21.0455C906.012 22.9394 906.391 25.0303 906.345 27.3182H897.754ZM923.257 12.4545L915.529 59H907.098L914.825 12.4545H923.257ZM922.1 59L929.827 12.4545H938.259L934.986 32.1591H956.555L959.827 12.4545H968.282L960.555 59H952.1L955.373 39.2273H933.805L930.532 59H922.1ZM967.165 59L974.892 12.4545H1005.17L1003.98 19.5227H982.142L980.051 32.1591H1000.32L999.142 39.2273H978.87L976.779 51.9318H998.801L997.62 59H967.165ZM1009.46 59H1000.46L1024.57 12.4545H1034.98L1043.66 59H1034.66L1028.41 22H1028.05L1009.46 59ZM1012.78 40.75H1037.32L1036.18 47.5227H1011.64L1012.78 40.75ZM1047.23 59L1054.96 12.4545H1072.41C1075.99 12.4545 1078.89 13.0758 1081.12 14.3182C1083.35 15.5606 1084.9 17.303 1085.78 19.5455C1086.66 21.7727 1086.85 24.3712 1086.35 27.3409C1085.86 30.3106 1084.8 32.8939 1083.16 35.0909C1081.54 37.2727 1079.4 38.9621 1076.73 40.1591C1074.08 41.3561 1070.97 41.9545 1067.39 41.9545H1054.96L1056.14 34.9545H1067.46C1069.55 34.9545 1071.31 34.6667 1072.73 34.0909C1074.16 33.5 1075.28 32.6439 1076.1 31.5227C1076.93 30.3864 1077.48 28.9924 1077.76 27.3409C1078.01 25.6894 1077.91 24.2803 1077.46 23.1136C1077.02 21.9318 1076.18 21.0379 1074.94 20.4318C1073.71 19.8106 1072.05 19.5 1069.96 19.5H1062.23L1055.66 59H1047.23ZM1074.78 37.9091L1082.8 59H1073.39L1065.57 37.9091H1074.78ZM1091.05 19.5227L1092.23 12.4545H1129.37L1128.18 19.5227H1113.8L1107.25 59H1098.89L1105.43 19.5227H1091.05Z" fill="#E9FF6B"/>
<path d="M1216.98 59L1225.44 12.4545H1231.8L1223.35 59H1216.98ZM1196.21 47L1197.39 40.6364H1233.21L1232.03 47H1196.21ZM1200.62 59L1209.08 12.4545H1215.44L1206.98 59H1200.62ZM1199.21 30.8182L1200.37 24.4545H1236.19L1235.03 30.8182H1199.21ZM1234.98 59L1242.7 12.4545H1251.14L1247.61 33.8409H1248.18L1269.86 12.4545H1280.16L1258.73 33.3409L1272.59 59H1262.45L1251.95 39.0455L1245.73 45.1818L1243.41 59H1234.98ZM1291.89 12.4545L1284.16 59H1275.73L1283.46 12.4545H1291.89ZM1336.71 12.4545L1328.98 59H1321.48L1304.82 27.2955H1304.46L1299.16 59H1290.73L1298.46 12.4545H1306L1322.64 44.1818H1323.07L1328.32 12.4545H1336.71ZM1340.11 19.5227L1341.29 12.4545H1378.43L1377.24 19.5227H1362.86L1356.31 59H1347.95L1354.49 19.5227H1340.11ZM1406.14 25.4773C1406.2 23.3712 1405.56 21.7576 1404.21 20.6364C1402.87 19.5152 1400.96 18.9545 1398.46 18.9545C1396.7 18.9545 1395.15 19.2197 1393.8 19.75C1392.47 20.2652 1391.39 20.9848 1390.57 21.9091C1389.75 22.8182 1389.25 23.8561 1389.05 25.0227C1388.88 25.9773 1388.97 26.8106 1389.3 27.5227C1389.63 28.2348 1390.14 28.8409 1390.82 29.3409C1391.52 29.8409 1392.31 30.2576 1393.18 30.5909C1394.08 30.9242 1394.99 31.2045 1395.91 31.4318L1400.09 32.5227C1401.76 32.9318 1403.35 33.4848 1404.87 34.1818C1406.38 34.8636 1407.69 35.7424 1408.8 36.8182C1409.92 37.8788 1410.74 39.1591 1411.25 40.6591C1411.77 42.1591 1411.85 43.9167 1411.5 45.9318C1411.05 48.6591 1409.95 51.0606 1408.21 53.1364C1406.48 55.197 1404.21 56.8106 1401.39 57.9773C1398.59 59.1288 1395.32 59.7045 1391.59 59.7045C1387.99 59.7045 1384.94 59.1439 1382.46 58.0227C1379.97 56.8864 1378.15 55.2424 1377 53.0909C1375.87 50.9394 1375.5 48.3258 1375.91 45.25H1384.21C1384.04 46.8712 1384.31 48.2197 1385 49.2955C1385.72 50.3712 1386.74 51.1742 1388.07 51.7045C1389.4 52.2348 1390.95 52.5 1392.71 52.5C1394.54 52.5 1396.2 52.2273 1397.68 51.6818C1399.17 51.1212 1400.38 50.3485 1401.32 49.3636C1402.28 48.3636 1402.86 47.197 1403.07 45.8636C1403.28 44.6667 1403.11 43.6667 1402.55 42.8636C1401.99 42.0606 1401.12 41.3939 1399.93 40.8636C1398.77 40.3182 1397.37 39.8333 1395.75 39.4091L1390.71 38.0455C1387.06 37.0455 1384.28 35.5455 1382.39 33.5455C1380.51 31.5455 1379.84 28.8788 1380.39 25.5455C1380.84 22.7879 1381.99 20.3864 1383.82 18.3409C1385.65 16.2803 1387.95 14.6818 1390.71 13.5455C1393.47 12.3939 1396.48 11.8182 1399.75 11.8182C1403.06 11.8182 1405.85 12.3939 1408.14 13.5455C1410.44 14.697 1412.12 16.303 1413.18 18.3636C1414.26 20.4091 1414.62 22.7803 1414.25 25.4773H1406.14ZM1451.37 12.4545H1459.8L1454.76 42.8636C1454.21 46.197 1452.94 49.1288 1450.94 51.6591C1448.95 54.1894 1446.42 56.1667 1443.35 57.5909C1440.27 59 1436.85 59.7045 1433.07 59.7045C1429.27 59.7045 1426.07 59 1423.48 57.5909C1420.89 56.1667 1419.02 54.1894 1417.87 51.6591C1416.73 49.1288 1416.44 46.197 1416.98 42.8636L1422.03 12.4545H1430.46L1425.53 42.1591C1425.21 44.0985 1425.35 45.8258 1425.96 47.3409C1426.58 48.8409 1427.6 50.0227 1429.01 50.8864C1430.43 51.75 1432.21 52.1818 1434.35 52.1818C1436.48 52.1818 1438.41 51.75 1440.12 50.8864C1441.83 50.0227 1443.23 48.8409 1444.32 47.3409C1445.41 45.8258 1446.12 44.0985 1446.44 42.1591L1451.37 12.4545ZM1495.09 27.3182C1494.92 26.0909 1494.62 24.9924 1494.18 24.0227C1493.74 23.0379 1493.15 22.2045 1492.41 21.5227C1491.66 20.8258 1490.76 20.2955 1489.7 19.9318C1488.64 19.5682 1487.41 19.3864 1486 19.3864C1483.5 19.3864 1481.13 20.0152 1478.88 21.2727C1476.64 22.5303 1474.72 24.3788 1473.13 26.8182C1471.54 29.2424 1470.46 32.197 1469.88 35.6818C1469.31 39.197 1469.34 42.1742 1469.97 44.6136C1470.61 47.053 1471.78 48.9091 1473.47 50.1818C1475.19 51.4394 1477.34 52.0682 1479.93 52.0682C1482.31 52.0682 1484.47 51.6136 1486.41 50.7045C1488.35 49.7955 1489.95 48.5076 1491.22 46.8409C1492.51 45.1591 1493.33 43.1894 1493.68 40.9318L1495.54 41.2273H1482.88L1484.02 34.6364H1502.91L1501.95 40.2273C1501.3 44.2273 1499.88 47.6818 1497.7 50.5909C1495.53 53.4848 1492.83 55.7197 1489.59 57.2955C1486.36 58.8561 1482.82 59.6364 1478.97 59.6364C1474.7 59.6364 1471.1 58.6742 1468.18 56.75C1465.27 54.8106 1463.21 52.0606 1462 48.5C1460.78 44.9242 1460.59 40.6818 1461.41 35.7727C1462.01 32.0152 1463.09 28.6591 1464.63 25.7045C1466.19 22.75 1468.1 20.2424 1470.36 18.1818C1472.63 16.1061 1475.16 14.5303 1477.93 13.4545C1480.7 12.3636 1483.61 11.8182 1486.66 11.8182C1489.22 11.8182 1491.55 12.197 1493.66 12.9545C1495.76 13.697 1497.56 14.7576 1499.06 16.1364C1500.58 17.5152 1501.74 19.1515 1502.54 21.0455C1503.35 22.9394 1503.72 25.0303 1503.68 27.3182H1495.09ZM1520.59 12.4545L1512.86 59H1504.43L1512.16 12.4545H1520.59ZM1519.43 59L1527.16 12.4545H1535.59L1532.32 32.1591H1553.89L1557.16 12.4545H1565.62L1557.89 59H1549.43L1552.71 39.2273H1531.14L1527.87 59H1519.43ZM1564.5 59L1572.23 12.4545H1602.5L1601.32 19.5227H1579.48L1577.38 32.1591H1597.66L1596.48 39.2273H1576.2L1574.11 51.9318H1596.13L1594.95 59H1564.5ZM1606.79 59H1597.79L1621.9 12.4545H1632.31L1641 59H1632L1625.75 22H1625.38L1606.79 59ZM1610.11 40.75H1634.65L1633.52 47.5227H1608.97L1610.11 40.75ZM1644.57 59L1652.29 12.4545H1669.75C1673.32 12.4545 1676.23 13.0758 1678.45 14.3182C1680.68 15.5606 1682.23 17.303 1683.11 19.5455C1683.99 21.7727 1684.18 24.3712 1683.68 27.3409C1683.19 30.3106 1682.13 32.8939 1680.5 35.0909C1678.88 37.2727 1676.73 38.9621 1674.07 40.1591C1671.41 41.3561 1668.3 41.9545 1664.73 41.9545H1652.29L1653.48 34.9545H1664.79C1666.88 34.9545 1668.64 34.6667 1670.07 34.0909C1671.49 33.5 1672.61 32.6439 1673.43 31.5227C1674.26 30.3864 1674.82 28.9924 1675.09 27.3409C1675.35 25.6894 1675.25 24.2803 1674.79 23.1136C1674.35 21.9318 1673.51 21.0379 1672.27 20.4318C1671.04 19.8106 1669.38 19.5 1667.29 19.5H1659.57L1653 59H1644.57ZM1672.11 37.9091L1680.13 59H1670.73L1662.91 37.9091H1672.11ZM1688.38 19.5227L1689.56 12.4545H1726.7L1725.52 19.5227H1711.13L1704.59 59H1696.22L1702.77 19.5227H1688.38Z" fill="#E9FF6B"/>
<path d="M1814.32 59L1822.77 12.4545H1829.14L1820.68 59H1814.32ZM1793.55 47L1794.73 40.6364H1830.55L1829.36 47H1793.55ZM1797.95 59L1806.41 12.4545H1812.77L1804.32 59H1797.95ZM1796.55 30.8182L1797.7 24.4545H1833.52L1832.36 30.8182H1796.55ZM1832.31 59L1840.04 12.4545H1848.47L1844.95 33.8409H1845.51L1867.2 12.4545H1877.49L1856.06 33.3409L1869.92 59H1859.79L1849.29 39.0455L1843.06 45.1818L1840.74 59H1832.31ZM1889.22 12.4545L1881.49 59H1873.06L1880.79 12.4545H1889.22ZM1934.04 12.4545L1926.31 59H1918.81L1902.16 27.2955H1901.79L1896.5 59H1888.06L1895.79 12.4545H1903.34L1919.97 44.1818H1920.41L1925.66 12.4545H1934.04ZM1937.44 19.5227L1938.62 12.4545H1975.76L1974.58 19.5227H1960.19L1953.65 59H1945.28L1951.83 19.5227H1937.44ZM2003.47 25.4773C2003.53 23.3712 2002.89 21.7576 2001.54 20.6364C2000.21 19.5152 1998.29 18.9545 1995.79 18.9545C1994.03 18.9545 1992.48 19.2197 1991.13 19.75C1989.8 20.2652 1988.72 20.9848 1987.9 21.9091C1987.09 22.8182 1986.58 23.8561 1986.38 25.0227C1986.22 25.9773 1986.3 26.8106 1986.63 27.5227C1986.97 28.2348 1987.47 28.8409 1988.15 29.3409C1988.85 29.8409 1989.64 30.2576 1990.52 30.5909C1991.41 30.9242 1992.32 31.2045 1993.25 31.4318L1997.43 32.5227C1999.09 32.9318 2000.68 33.4848 2002.2 34.1818C2003.72 34.8636 2005.03 35.7424 2006.13 36.8182C2007.25 37.8788 2008.07 39.1591 2008.59 40.6591C2009.1 42.1591 2009.18 43.9167 2008.84 45.9318C2008.38 48.6591 2007.28 51.0606 2005.54 53.1364C2003.81 55.197 2001.54 56.8106 1998.72 57.9773C1995.92 59.1288 1992.65 59.7045 1988.93 59.7045C1985.32 59.7045 1982.28 59.1439 1979.79 58.0227C1977.31 56.8864 1975.49 55.2424 1974.34 53.0909C1973.2 50.9394 1972.84 48.3258 1973.25 45.25H1981.54C1981.37 46.8712 1981.64 48.2197 1982.34 49.2955C1983.05 50.3712 1984.07 51.1742 1985.4 51.7045C1986.74 52.2348 1988.28 52.5 1990.04 52.5C1991.87 52.5 1993.53 52.2273 1995.02 51.6818C1996.5 51.1212 1997.72 50.3485 1998.65 49.3636C1999.61 48.3636 2000.19 47.197 2000.4 45.8636C2000.62 44.6667 2000.44 43.6667 1999.88 42.8636C1999.32 42.0606 1998.45 41.3939 1997.27 40.8636C1996.1 40.3182 1994.71 39.8333 1993.09 39.4091L1988.04 38.0455C1984.39 37.0455 1981.62 35.5455 1979.72 33.5455C1977.84 31.5455 1977.18 28.8788 1977.72 25.5455C1978.18 22.7879 1979.32 20.3864 1981.15 18.3409C1982.99 16.2803 1985.28 14.6818 1988.04 13.5455C1990.8 12.3939 1993.81 11.8182 1997.09 11.8182C2000.39 11.8182 2003.18 12.3939 2005.47 13.5455C2007.78 14.697 2009.46 16.303 2010.52 18.3636C2011.59 20.4091 2011.95 22.7803 2011.59 25.4773H2003.47ZM2048.7 12.4545H2057.13L2052.09 42.8636C2051.54 46.197 2050.27 49.1288 2048.27 51.6591C2046.29 54.1894 2043.76 56.1667 2040.68 57.5909C2037.6 59 2034.18 59.7045 2030.41 59.7045C2026.6 59.7045 2023.41 59 2020.82 57.5909C2018.23 56.1667 2016.35 54.1894 2015.2 51.6591C2014.07 49.1288 2013.77 46.197 2014.32 42.8636L2019.36 12.4545H2027.79L2022.86 42.1591C2022.54 44.0985 2022.69 45.8258 2023.29 47.3409C2023.91 48.8409 2024.93 50.0227 2026.34 50.8864C2027.76 51.75 2029.54 52.1818 2031.68 52.1818C2033.82 52.1818 2035.74 51.75 2037.45 50.8864C2039.16 50.0227 2040.57 48.8409 2041.66 47.3409C2042.75 45.8258 2043.45 44.0985 2043.77 42.1591L2048.7 12.4545ZM2092.42 27.3182C2092.25 26.0909 2091.95 24.9924 2091.51 24.0227C2091.07 23.0379 2090.48 22.2045 2089.74 21.5227C2089 20.8258 2088.1 20.2955 2087.03 19.9318C2085.97 19.5682 2084.74 19.3864 2083.33 19.3864C2080.83 19.3864 2078.46 20.0152 2076.22 21.2727C2073.97 22.5303 2072.06 24.3788 2070.47 26.8182C2068.88 29.2424 2067.79 32.197 2067.22 35.6818C2066.64 39.197 2066.67 42.1742 2067.31 44.6136C2067.94 47.053 2069.11 48.9091 2070.81 50.1818C2072.52 51.4394 2074.67 52.0682 2077.26 52.0682C2079.64 52.0682 2081.8 51.6136 2083.74 50.7045C2085.68 49.7955 2087.28 48.5076 2088.56 46.8409C2089.85 45.1591 2090.66 43.1894 2091.01 40.9318L2092.88 41.2273H2080.22L2081.35 34.6364H2100.24L2099.28 40.2273C2098.63 44.2273 2097.22 47.6818 2095.03 50.5909C2092.87 53.4848 2090.16 55.7197 2086.92 57.2955C2083.69 58.8561 2080.16 59.6364 2076.31 59.6364C2072.03 59.6364 2068.44 58.6742 2065.51 56.75C2062.6 54.8106 2060.54 52.0606 2059.33 48.5C2058.12 44.9242 2057.92 40.6818 2058.74 35.7727C2059.35 32.0152 2060.42 28.6591 2061.97 25.7045C2063.53 22.75 2065.44 20.2424 2067.69 18.1818C2069.97 16.1061 2072.49 14.5303 2075.26 13.4545C2078.03 12.3636 2080.94 11.8182 2083.99 11.8182C2086.55 11.8182 2088.88 12.197 2090.99 12.9545C2093.1 13.697 2094.9 14.7576 2096.4 16.1364C2097.91 17.5152 2099.07 19.1515 2099.88 21.0455C2100.68 22.9394 2101.06 25.0303 2101.01 27.3182H2092.42ZM2117.92 12.4545L2110.2 59H2101.76L2109.49 12.4545H2117.92ZM2116.77 59L2124.49 12.4545H2132.93L2129.65 32.1591H2151.22L2154.49 12.4545H2162.95L2155.22 59H2146.77L2150.04 39.2273H2128.47L2125.2 59H2116.77ZM2161.83 59L2169.56 12.4545H2199.83L2198.65 19.5227H2176.81L2174.72 32.1591H2194.99L2193.81 39.2273H2173.54L2171.45 51.9318H2193.47L2192.29 59H2161.83ZM2204.12 59H2195.12L2219.24 12.4545H2229.65L2238.33 59H2229.33L2223.08 22H2222.71L2204.12 59ZM2207.44 40.75H2231.99L2230.85 47.5227H2206.31L2207.44 40.75ZM2241.9 59L2249.63 12.4545H2267.08C2270.66 12.4545 2273.56 13.0758 2275.79 14.3182C2278.01 15.5606 2279.57 17.303 2280.44 19.5455C2281.32 21.7727 2281.51 24.3712 2281.01 27.3409C2280.53 30.3106 2279.47 32.8939 2277.83 35.0909C2276.21 37.2727 2274.07 38.9621 2271.4 40.1591C2268.75 41.3561 2265.63 41.9545 2262.06 41.9545H2249.63L2250.81 34.9545H2262.13C2264.22 34.9545 2265.98 34.6667 2267.4 34.0909C2268.82 33.5 2269.94 32.6439 2270.76 31.5227C2271.6 30.3864 2272.15 28.9924 2272.42 27.3409C2272.68 25.6894 2272.58 24.2803 2272.13 23.1136C2271.69 21.9318 2270.85 21.0379 2269.6 20.4318C2268.38 19.8106 2266.72 19.5 2264.63 19.5H2256.9L2250.33 59H2241.9ZM2269.44 37.9091L2277.47 59H2268.06L2260.24 37.9091H2269.44ZM2285.71 19.5227L2286.9 12.4545H2324.03L2322.85 19.5227H2308.46L2301.92 59H2293.56L2300.1 19.5227H2285.71Z" fill="#E9FF6B"/>
<path d="M2411.32 59L2419.77 12.4545H2426.14L2417.68 59H2411.32ZM2390.55 47L2391.73 40.6364H2427.55L2426.36 47H2390.55ZM2394.95 59L2403.41 12.4545H2409.77L2401.32 59H2394.95ZM2393.55 30.8182L2394.7 24.4545H2430.52L2429.36 30.8182H2393.55ZM2429.31 59L2437.04 12.4545H2445.47L2441.95 33.8409H2442.51L2464.2 12.4545H2474.49L2453.06 33.3409L2466.92 59H2456.79L2446.29 39.0455L2440.06 45.1818L2437.74 59H2429.31ZM2486.22 12.4545L2478.49 59H2470.06L2477.79 12.4545H2486.22ZM2531.04 12.4545L2523.31 59H2515.81L2499.16 27.2955H2498.79L2493.5 59H2485.06L2492.79 12.4545H2500.34L2516.97 44.1818H2517.41L2522.66 12.4545H2531.04ZM2534.44 19.5227L2535.62 12.4545H2572.76L2571.58 19.5227H2557.19L2550.65 59H2542.28L2548.83 19.5227H2534.44ZM2600.47 25.4773C2600.53 23.3712 2599.89 21.7576 2598.54 20.6364C2597.21 19.5152 2595.29 18.9545 2592.79 18.9545C2591.03 18.9545 2589.48 19.2197 2588.13 19.75C2586.8 20.2652 2585.72 20.9848 2584.9 21.9091C2584.09 22.8182 2583.58 23.8561 2583.38 25.0227C2583.22 25.9773 2583.3 26.8106 2583.63 27.5227C2583.97 28.2348 2584.47 28.8409 2585.15 29.3409C2585.85 29.8409 2586.64 30.2576 2587.52 30.5909C2588.41 30.9242 2589.32 31.2045 2590.25 31.4318L2594.43 32.5227C2596.09 32.9318 2597.68 33.4848 2599.2 34.1818C2600.72 34.8636 2602.03 35.7424 2603.13 36.8182C2604.25 37.8788 2605.07 39.1591 2605.59 40.6591C2606.1 42.1591 2606.18 43.9167 2605.84 45.9318C2605.38 48.6591 2604.28 51.0606 2602.54 53.1364C2600.81 55.197 2598.54 56.8106 2595.72 57.9773C2592.92 59.1288 2589.65 59.7045 2585.93 59.7045C2582.32 59.7045 2579.28 59.1439 2576.79 58.0227C2574.31 56.8864 2572.49 55.2424 2571.34 53.0909C2570.2 50.9394 2569.84 48.3258 2570.25 45.25H2578.54C2578.37 46.8712 2578.64 48.2197 2579.34 49.2955C2580.05 50.3712 2581.07 51.1742 2582.4 51.7045C2583.74 52.2348 2585.28 52.5 2587.04 52.5C2588.87 52.5 2590.53 52.2273 2592.02 51.6818C2593.5 51.1212 2594.72 50.3485 2595.65 49.3636C2596.61 48.3636 2597.19 47.197 2597.4 45.8636C2597.62 44.6667 2597.44 43.6667 2596.88 42.8636C2596.32 42.0606 2595.45 41.3939 2594.27 40.8636C2593.1 40.3182 2591.71 39.8333 2590.09 39.4091L2585.04 38.0455C2581.39 37.0455 2578.62 35.5455 2576.72 33.5455C2574.84 31.5455 2574.18 28.8788 2574.72 25.5455C2575.18 22.7879 2576.32 20.3864 2578.15 18.3409C2579.99 16.2803 2582.28 14.6818 2585.04 13.5455C2587.8 12.3939 2590.81 11.8182 2594.09 11.8182C2597.39 11.8182 2600.18 12.3939 2602.47 13.5455C2604.78 14.697 2606.46 16.303 2607.52 18.3636C2608.59 20.4091 2608.95 22.7803 2608.59 25.4773H2600.47ZM2645.7 12.4545H2654.13L2649.09 42.8636C2648.54 46.197 2647.27 49.1288 2645.27 51.6591C2643.29 54.1894 2640.76 56.1667 2637.68 57.5909C2634.6 59 2631.18 59.7045 2627.41 59.7045C2623.6 59.7045 2620.41 59 2617.82 57.5909C2615.23 56.1667 2613.35 54.1894 2612.2 51.6591C2611.07 49.1288 2610.77 46.197 2611.32 42.8636L2616.36 12.4545H2624.79L2619.86 42.1591C2619.54 44.0985 2619.69 45.8258 2620.29 47.3409C2620.91 48.8409 2621.93 50.0227 2623.34 50.8864C2624.76 51.75 2626.54 52.1818 2628.68 52.1818C2630.82 52.1818 2632.74 51.75 2634.45 50.8864C2636.16 50.0227 2637.57 48.8409 2638.66 47.3409C2639.75 45.8258 2640.45 44.0985 2640.77 42.1591L2645.7 12.4545ZM2689.42 27.3182C2689.25 26.0909 2688.95 24.9924 2688.51 24.0227C2688.07 23.0379 2687.48 22.2045 2686.74 21.5227C2686 20.8258 2685.1 20.2955 2684.03 19.9318C2682.97 19.5682 2681.74 19.3864 2680.33 19.3864C2677.83 19.3864 2675.46 20.0152 2673.22 21.2727C2670.97 22.5303 2669.06 24.3788 2667.47 26.8182C2665.88 29.2424 2664.79 32.197 2664.22 35.6818C2663.64 39.197 2663.67 42.1742 2664.31 44.6136C2664.94 47.053 2666.11 48.9091 2667.81 50.1818C2669.52 51.4394 2671.67 52.0682 2674.26 52.0682C2676.64 52.0682 2678.8 51.6136 2680.74 50.7045C2682.68 49.7955 2684.28 48.5076 2685.56 46.8409C2686.85 45.1591 2687.66 43.1894 2688.01 40.9318L2689.88 41.2273H2677.22L2678.35 34.6364H2697.24L2696.28 40.2273C2695.63 44.2273 2694.22 47.6818 2692.03 50.5909C2689.87 53.4848 2687.16 55.7197 2683.92 57.2955C2680.69 58.8561 2677.16 59.6364 2673.31 59.6364C2669.03 59.6364 2665.44 58.6742 2662.51 56.75C2659.6 54.8106 2657.54 52.0606 2656.33 48.5C2655.12 44.9242 2654.92 40.6818 2655.74 35.7727C2656.35 32.0152 2657.42 28.6591 2658.97 25.7045C2660.53 22.75 2662.44 20.2424 2664.69 18.1818C2666.97 16.1061 2669.49 14.5303 2672.26 13.4545C2675.03 12.3636 2677.94 11.8182 2680.99 11.8182C2683.55 11.8182 2685.88 12.197 2687.99 12.9545C2690.1 13.697 2691.9 14.7576 2693.4 16.1364C2694.91 17.5152 2696.07 19.1515 2696.88 21.0455C2697.68 22.9394 2698.06 25.0303 2698.01 27.3182H2689.42ZM2714.92 12.4545L2707.2 59H2698.76L2706.49 12.4545H2714.92ZM2713.77 59L2721.49 12.4545H2729.93L2726.65 32.1591H2748.22L2751.49 12.4545H2759.95L2752.22 59H2743.77L2747.04 39.2273H2725.47L2722.2 59H2713.77ZM2758.83 59L2766.56 12.4545H2796.83L2795.65 19.5227H2773.81L2771.72 32.1591H2791.99L2790.81 39.2273H2770.54L2768.45 51.9318H2790.47L2789.29 59H2758.83ZM2801.12 59H2792.12L2816.24 12.4545H2826.65L2835.33 59H2826.33L2820.08 22H2819.71L2801.12 59ZM2804.44 40.75H2828.99L2827.85 47.5227H2803.31L2804.44 40.75ZM2838.9 59L2846.63 12.4545H2864.08C2867.66 12.4545 2870.56 13.0758 2872.79 14.3182C2875.01 15.5606 2876.57 17.303 2877.44 19.5455C2878.32 21.7727 2878.51 24.3712 2878.01 27.3409C2877.53 30.3106 2876.47 32.8939 2874.83 35.0909C2873.21 37.2727 2871.07 38.9621 2868.4 40.1591C2865.75 41.3561 2862.63 41.9545 2859.06 41.9545H2846.63L2847.81 34.9545H2859.13C2861.22 34.9545 2862.98 34.6667 2864.4 34.0909C2865.82 33.5 2866.94 32.6439 2867.76 31.5227C2868.6 30.3864 2869.15 28.9924 2869.42 27.3409C2869.68 25.6894 2869.58 24.2803 2869.13 23.1136C2868.69 21.9318 2867.85 21.0379 2866.6 20.4318C2865.38 19.8106 2863.72 19.5 2861.63 19.5H2853.9L2847.33 59H2838.9ZM2866.44 37.9091L2874.47 59H2865.06L2857.24 37.9091H2866.44ZM2882.71 19.5227L2883.9 12.4545H2921.03L2919.85 19.5227H2905.46L2898.92 59H2890.56L2897.1 19.5227H2882.71Z" fill="#E9FF6B"/>
<path d="M3008.65 59L3017.11 12.4545H3023.47L3015.02 59H3008.65ZM2987.88 47L2989.06 40.6364H3024.88L3023.7 47H2987.88ZM2992.29 59L3000.74 12.4545H3007.11L2998.65 59H2992.29ZM2990.88 30.8182L2992.04 24.4545H3027.86L3026.7 30.8182H2990.88ZM3026.64 59L3034.37 12.4545H3042.8L3039.28 33.8409H3039.85L3061.53 12.4545H3071.82L3050.39 33.3409L3064.26 59H3054.12L3043.62 39.0455L3037.39 45.1818L3035.07 59H3026.64ZM3083.55 12.4545L3075.83 59H3067.4L3075.12 12.4545H3083.55ZM3128.37 12.4545L3120.65 59H3113.15L3096.49 27.2955H3096.12L3090.83 59H3082.4L3090.12 12.4545H3097.67L3114.31 44.1818H3114.74L3119.99 12.4545H3128.37ZM3131.78 19.5227L3132.96 12.4545H3170.09L3168.91 19.5227H3154.53L3147.98 59H3139.62L3146.16 19.5227H3131.78ZM3197.81 25.4773C3197.87 23.3712 3197.22 21.7576 3195.87 20.6364C3194.54 19.5152 3192.62 18.9545 3190.12 18.9545C3188.37 18.9545 3186.81 19.2197 3185.47 19.75C3184.13 20.2652 3183.06 20.9848 3182.24 21.9091C3181.42 22.8182 3180.91 23.8561 3180.72 25.0227C3180.55 25.9773 3180.63 26.8106 3180.97 27.5227C3181.3 28.2348 3181.81 28.8409 3182.49 29.3409C3183.18 29.8409 3183.97 30.2576 3184.85 30.5909C3185.75 30.9242 3186.65 31.2045 3187.58 31.4318L3191.76 32.5227C3193.43 32.9318 3195.02 33.4848 3196.53 34.1818C3198.05 34.8636 3199.36 35.7424 3200.47 36.8182C3201.59 37.8788 3202.4 39.1591 3202.92 40.6591C3203.43 42.1591 3203.52 43.9167 3203.17 45.9318C3202.72 48.6591 3201.62 51.0606 3199.87 53.1364C3198.15 55.197 3195.87 56.8106 3193.06 57.9773C3190.25 59.1288 3186.99 59.7045 3183.26 59.7045C3179.65 59.7045 3176.61 59.1439 3174.12 58.0227C3171.64 56.8864 3169.82 55.2424 3168.67 53.0909C3167.53 50.9394 3167.17 48.3258 3167.58 45.25H3175.87C3175.71 46.8712 3175.97 48.2197 3176.67 49.2955C3177.38 50.3712 3178.4 51.1742 3179.74 51.7045C3181.07 52.2348 3182.62 52.5 3184.37 52.5C3186.21 52.5 3187.87 52.2273 3189.35 51.6818C3190.84 51.1212 3192.05 50.3485 3192.99 49.3636C3193.94 48.3636 3194.53 47.197 3194.74 45.8636C3194.95 44.6667 3194.78 43.6667 3194.22 42.8636C3193.65 42.0606 3192.78 41.3939 3191.6 40.8636C3190.43 40.3182 3189.04 39.8333 3187.42 39.4091L3182.37 38.0455C3178.72 37.0455 3175.95 35.5455 3174.06 33.5455C3172.18 31.5455 3171.51 28.8788 3172.06 25.5455C3172.51 22.7879 3173.65 20.3864 3175.49 18.3409C3177.32 16.2803 3179.62 14.6818 3182.37 13.5455C3185.13 12.3939 3188.15 11.8182 3191.42 11.8182C3194.72 11.8182 3197.52 12.3939 3199.81 13.5455C3202.11 14.697 3203.79 16.303 3204.85 18.3636C3205.93 20.4091 3206.28 22.7803 3205.92 25.4773H3197.81ZM3243.04 12.4545H3251.47L3246.42 42.8636C3245.88 46.197 3244.6 49.1288 3242.6 51.6591C3240.62 54.1894 3238.09 56.1667 3235.01 57.5909C3231.94 59 3228.51 59.7045 3224.74 59.7045C3220.94 59.7045 3217.74 59 3215.15 57.5909C3212.56 56.1667 3210.69 54.1894 3209.54 51.6591C3208.4 49.1288 3208.1 46.197 3208.65 42.8636L3213.69 12.4545H3222.13L3217.19 42.1591C3216.88 44.0985 3217.02 45.8258 3217.63 47.3409C3218.25 48.8409 3219.26 50.0227 3220.67 50.8864C3222.1 51.75 3223.88 52.1818 3226.01 52.1818C3228.15 52.1818 3230.07 51.75 3231.79 50.8864C3233.5 50.0227 3234.9 48.8409 3235.99 47.3409C3237.08 45.8258 3237.79 44.0985 3238.1 42.1591L3243.04 12.4545ZM3286.75 27.3182C3286.59 26.0909 3286.28 24.9924 3285.85 24.0227C3285.41 23.0379 3284.81 22.2045 3284.07 21.5227C3283.33 20.8258 3282.43 20.2955 3281.37 19.9318C3280.31 19.5682 3279.07 19.3864 3277.66 19.3864C3275.16 19.3864 3272.79 20.0152 3270.55 21.2727C3268.31 22.5303 3266.39 24.3788 3264.8 26.8182C3263.21 29.2424 3262.13 32.197 3261.55 35.6818C3260.97 39.197 3261 42.1742 3261.64 44.6136C3262.28 47.053 3263.44 48.9091 3265.14 50.1818C3266.85 51.4394 3269 52.0682 3271.6 52.0682C3273.97 52.0682 3276.13 51.6136 3278.07 50.7045C3280.01 49.7955 3281.62 48.5076 3282.89 46.8409C3284.18 45.1591 3285 43.1894 3285.35 40.9318L3287.21 41.2273H3274.55L3275.69 34.6364H3294.57L3293.62 40.2273C3292.97 44.2273 3291.55 47.6818 3289.37 50.5909C3287.2 53.4848 3284.5 55.7197 3281.25 57.2955C3278.03 58.8561 3274.49 59.6364 3270.64 59.6364C3266.37 59.6364 3262.77 58.6742 3259.85 56.75C3256.94 54.8106 3254.88 52.0606 3253.66 48.5C3252.45 44.9242 3252.25 40.6818 3253.07 35.7727C3253.68 32.0152 3254.75 28.6591 3256.3 25.7045C3257.86 22.75 3259.77 20.2424 3262.03 18.1818C3264.3 16.1061 3266.82 14.5303 3269.6 13.4545C3272.37 12.3636 3275.28 11.8182 3278.32 11.8182C3280.88 11.8182 3283.22 12.197 3285.32 12.9545C3287.43 13.697 3289.23 14.7576 3290.73 16.1364C3292.25 17.5152 3293.41 19.1515 3294.21 21.0455C3295.01 22.9394 3295.39 25.0303 3295.35 27.3182H3286.75ZM3312.26 12.4545L3304.53 59H3296.1L3303.82 12.4545H3312.26ZM3311.1 59L3318.83 12.4545H3327.26L3323.99 32.1591H3345.55L3348.83 12.4545H3357.28L3349.55 59H3341.1L3344.37 39.2273H3322.8L3319.53 59H3311.1ZM3356.17 59L3363.89 12.4545H3394.17L3392.98 19.5227H3371.14L3369.05 32.1591H3389.32L3388.14 39.2273H3367.87L3365.78 51.9318H3387.8L3386.62 59H3356.17ZM3398.46 59H3389.46L3413.57 12.4545H3423.98L3432.66 59H3423.66L3417.41 22H3417.05L3398.46 59ZM3401.78 40.75H3426.32L3425.18 47.5227H3400.64L3401.78 40.75ZM3436.23 59L3443.96 12.4545H3461.41C3464.99 12.4545 3467.89 13.0758 3470.12 14.3182C3472.35 15.5606 3473.9 17.303 3474.78 19.5455C3475.66 21.7727 3475.85 24.3712 3475.35 27.3409C3474.86 30.3106 3473.8 32.8939 3472.16 35.0909C3470.54 37.2727 3468.4 38.9621 3465.73 40.1591C3463.08 41.3561 3459.97 41.9545 3456.39 41.9545H3443.96L3445.14 34.9545H3456.46C3458.55 34.9545 3460.31 34.6667 3461.73 34.0909C3463.16 33.5 3464.28 32.6439 3465.1 31.5227C3465.93 30.3864 3466.48 28.9924 3466.76 27.3409C3467.01 25.6894 3466.91 24.2803 3466.46 23.1136C3466.02 21.9318 3465.18 21.0379 3463.94 20.4318C3462.71 19.8106 3461.05 19.5 3458.96 19.5H3451.23L3444.66 59H3436.23ZM3463.78 37.9091L3471.8 59H3462.39L3454.57 37.9091H3463.78ZM3480.05 19.5227L3481.23 12.4545H3518.37L3517.18 19.5227H3502.8L3496.25 59H3487.89L3494.43 19.5227H3480.05Z" fill="#E9FF6B"/>
<path d="M3605.98 59L3614.44 12.4545H3620.8L3612.35 59H3605.98ZM3585.21 47L3586.39 40.6364H3622.21L3621.03 47H3585.21ZM3589.62 59L3598.08 12.4545H3604.44L3595.98 59H3589.62ZM3588.21 30.8182L3589.37 24.4545H3625.19L3624.03 30.8182H3588.21ZM3623.98 59L3631.7 12.4545H3640.14L3636.61 33.8409H3637.18L3658.86 12.4545H3669.16L3647.73 33.3409L3661.59 59H3651.45L3640.95 39.0455L3634.73 45.1818L3632.41 59H3623.98ZM3680.89 12.4545L3673.16 59H3664.73L3672.46 12.4545H3680.89ZM3725.71 12.4545L3717.98 59H3710.48L3693.82 27.2955H3693.46L3688.16 59H3679.73L3687.46 12.4545H3695L3711.64 44.1818H3712.07L3717.32 12.4545H3725.71ZM3729.11 19.5227L3730.29 12.4545H3767.43L3766.24 19.5227H3751.86L3745.31 59H3736.95L3743.49 19.5227H3729.11ZM3795.14 25.4773C3795.2 23.3712 3794.56 21.7576 3793.21 20.6364C3791.87 19.5152 3789.96 18.9545 3787.46 18.9545C3785.7 18.9545 3784.15 19.2197 3782.8 19.75C3781.47 20.2652 3780.39 20.9848 3779.57 21.9091C3778.75 22.8182 3778.25 23.8561 3778.05 25.0227C3777.88 25.9773 3777.97 26.8106 3778.3 27.5227C3778.63 28.2348 3779.14 28.8409 3779.82 29.3409C3780.52 29.8409 3781.31 30.2576 3782.18 30.5909C3783.08 30.9242 3783.99 31.2045 3784.91 31.4318L3789.09 32.5227C3790.76 32.9318 3792.35 33.4848 3793.87 34.1818C3795.38 34.8636 3796.69 35.7424 3797.8 36.8182C3798.92 37.8788 3799.74 39.1591 3800.25 40.6591C3800.77 42.1591 3800.85 43.9167 3800.5 45.9318C3800.05 48.6591 3798.95 51.0606 3797.21 53.1364C3795.48 55.197 3793.21 56.8106 3790.39 57.9773C3787.59 59.1288 3784.32 59.7045 3780.59 59.7045C3776.99 59.7045 3773.94 59.1439 3771.46 58.0227C3768.97 56.8864 3767.15 55.2424 3766 53.0909C3764.87 50.9394 3764.5 48.3258 3764.91 45.25H3773.21C3773.04 46.8712 3773.31 48.2197 3774 49.2955C3774.72 50.3712 3775.74 51.1742 3777.07 51.7045C3778.4 52.2348 3779.95 52.5 3781.71 52.5C3783.54 52.5 3785.2 52.2273 3786.68 51.6818C3788.17 51.1212 3789.38 50.3485 3790.32 49.3636C3791.28 48.3636 3791.86 47.197 3792.07 45.8636C3792.28 44.6667 3792.11 43.6667 3791.55 42.8636C3790.99 42.0606 3790.12 41.3939 3788.93 40.8636C3787.77 40.3182 3786.37 39.8333 3784.75 39.4091L3779.71 38.0455C3776.06 37.0455 3773.28 35.5455 3771.39 33.5455C3769.51 31.5455 3768.84 28.8788 3769.39 25.5455C3769.84 22.7879 3770.99 20.3864 3772.82 18.3409C3774.65 16.2803 3776.95 14.6818 3779.71 13.5455C3782.47 12.3939 3785.48 11.8182 3788.75 11.8182C3792.06 11.8182 3794.85 12.3939 3797.14 13.5455C3799.44 14.697 3801.12 16.303 3802.18 18.3636C3803.26 20.4091 3803.62 22.7803 3803.25 25.4773H3795.14ZM3840.37 12.4545H3848.8L3843.76 42.8636C3843.21 46.197 3841.94 49.1288 3839.94 51.6591C3837.95 54.1894 3835.42 56.1667 3832.35 57.5909C3829.27 59 3825.85 59.7045 3822.07 59.7045C3818.27 59.7045 3815.07 59 3812.48 57.5909C3809.89 56.1667 3808.02 54.1894 3806.87 51.6591C3805.73 49.1288 3805.44 46.197 3805.98 42.8636L3811.03 12.4545H3819.46L3814.53 42.1591C3814.21 44.0985 3814.35 45.8258 3814.96 47.3409C3815.58 48.8409 3816.6 50.0227 3818.01 50.8864C3819.43 51.75 3821.21 52.1818 3823.35 52.1818C3825.48 52.1818 3827.41 51.75 3829.12 50.8864C3830.83 50.0227 3832.23 48.8409 3833.32 47.3409C3834.41 45.8258 3835.12 44.0985 3835.44 42.1591L3840.37 12.4545ZM3884.09 27.3182C3883.92 26.0909 3883.62 24.9924 3883.18 24.0227C3882.74 23.0379 3882.15 22.2045 3881.41 21.5227C3880.66 20.8258 3879.76 20.2955 3878.7 19.9318C3877.64 19.5682 3876.41 19.3864 3875 19.3864C3872.5 19.3864 3870.13 20.0152 3867.88 21.2727C3865.64 22.5303 3863.72 24.3788 3862.13 26.8182C3860.54 29.2424 3859.46 32.197 3858.88 35.6818C3858.31 39.197 3858.34 42.1742 3858.97 44.6136C3859.61 47.053 3860.78 48.9091 3862.47 50.1818C3864.19 51.4394 3866.34 52.0682 3868.93 52.0682C3871.31 52.0682 3873.47 51.6136 3875.41 50.7045C3877.35 49.7955 3878.95 48.5076 3880.22 46.8409C3881.51 45.1591 3882.33 43.1894 3882.68 40.9318L3884.54 41.2273H3871.88L3873.02 34.6364H3891.91L3890.95 40.2273C3890.3 44.2273 3888.88 47.6818 3886.7 50.5909C3884.53 53.4848 3881.83 55.7197 3878.59 57.2955C3875.36 58.8561 3871.82 59.6364 3867.97 59.6364C3863.7 59.6364 3860.1 58.6742 3857.18 56.75C3854.27 54.8106 3852.21 52.0606 3851 48.5C3849.78 44.9242 3849.59 40.6818 3850.41 35.7727C3851.01 32.0152 3852.09 28.6591 3853.63 25.7045C3855.19 22.75 3857.1 20.2424 3859.36 18.1818C3861.63 16.1061 3864.16 14.5303 3866.93 13.4545C3869.7 12.3636 3872.61 11.8182 3875.66 11.8182C3878.22 11.8182 3880.55 12.197 3882.66 12.9545C3884.76 13.697 3886.56 14.7576 3888.06 16.1364C3889.58 17.5152 3890.74 19.1515 3891.54 21.0455C3892.35 22.9394 3892.72 25.0303 3892.68 27.3182H3884.09ZM3909.59 12.4545L3901.86 59H3893.43L3901.16 12.4545H3909.59ZM3908.43 59L3916.16 12.4545H3924.59L3921.32 32.1591H3942.89L3946.16 12.4545H3954.62L3946.89 59H3938.43L3941.71 39.2273H3920.14L3916.87 59H3908.43ZM3953.5 59L3961.23 12.4545H3991.5L3990.32 19.5227H3968.48L3966.38 32.1591H3986.66L3985.48 39.2273H3965.2L3963.11 51.9318H3985.13L3983.95 59H3953.5ZM3995.79 59H3986.79L4010.9 12.4545H4021.31L4030 59H4021L4014.75 22H4014.38L3995.79 59ZM3999.11 40.75H4023.65L4022.52 47.5227H3997.97L3999.11 40.75ZM4033.57 59L4041.29 12.4545H4058.75C4062.32 12.4545 4065.23 13.0758 4067.45 14.3182C4069.68 15.5606 4071.23 17.303 4072.11 19.5455C4072.99 21.7727 4073.18 24.3712 4072.68 27.3409C4072.19 30.3106 4071.13 32.8939 4069.5 35.0909C4067.88 37.2727 4065.73 38.9621 4063.07 40.1591C4060.41 41.3561 4057.3 41.9545 4053.73 41.9545H4041.29L4042.48 34.9545H4053.79C4055.88 34.9545 4057.64 34.6667 4059.07 34.0909C4060.49 33.5 4061.61 32.6439 4062.43 31.5227C4063.26 30.3864 4063.82 28.9924 4064.09 27.3409C4064.35 25.6894 4064.25 24.2803 4063.79 23.1136C4063.35 21.9318 4062.51 21.0379 4061.27 20.4318C4060.04 19.8106 4058.38 19.5 4056.29 19.5H4048.57L4042 59H4033.57ZM4061.11 37.9091L4069.13 59H4059.73L4051.91 37.9091H4061.11ZM4077.38 19.5227L4078.56 12.4545H4115.7L4114.52 19.5227H4100.13L4093.59 59H4085.22L4091.77 19.5227H4077.38Z" fill="#E9FF6B"/>
<path d="M4203.32 59L4211.77 12.4545H4218.14L4209.68 59H4203.32ZM4182.55 47L4183.73 40.6364H4219.55L4218.36 47H4182.55ZM4186.95 59L4195.41 12.4545H4201.77L4193.32 59H4186.95ZM4185.55 30.8182L4186.7 24.4545H4222.52L4221.36 30.8182H4185.55ZM4221.31 59L4229.04 12.4545H4237.47L4233.95 33.8409H4234.51L4256.2 12.4545H4266.49L4245.06 33.3409L4258.92 59H4248.79L4238.29 39.0455L4232.06 45.1818L4229.74 59H4221.31ZM4278.22 12.4545L4270.49 59H4262.06L4269.79 12.4545H4278.22ZM4323.04 12.4545L4315.31 59H4307.81L4291.16 27.2955H4290.79L4285.5 59H4277.06L4284.79 12.4545H4292.34L4308.97 44.1818H4309.41L4314.66 12.4545H4323.04ZM4326.44 19.5227L4327.62 12.4545H4364.76L4363.58 19.5227H4349.19L4342.65 59H4334.28L4340.83 19.5227H4326.44ZM4392.47 25.4773C4392.53 23.3712 4391.89 21.7576 4390.54 20.6364C4389.21 19.5152 4387.29 18.9545 4384.79 18.9545C4383.03 18.9545 4381.48 19.2197 4380.13 19.75C4378.8 20.2652 4377.72 20.9848 4376.9 21.9091C4376.09 22.8182 4375.58 23.8561 4375.38 25.0227C4375.22 25.9773 4375.3 26.8106 4375.63 27.5227C4375.97 28.2348 4376.47 28.8409 4377.15 29.3409C4377.85 29.8409 4378.64 30.2576 4379.52 30.5909C4380.41 30.9242 4381.32 31.2045 4382.25 31.4318L4386.43 32.5227C4388.09 32.9318 4389.68 33.4848 4391.2 34.1818C4392.72 34.8636 4394.03 35.7424 4395.13 36.8182C4396.25 37.8788 4397.07 39.1591 4397.59 40.6591C4398.1 42.1591 4398.18 43.9167 4397.84 45.9318C4397.38 48.6591 4396.28 51.0606 4394.54 53.1364C4392.81 55.197 4390.54 56.8106 4387.72 57.9773C4384.92 59.1288 4381.65 59.7045 4377.93 59.7045C4374.32 59.7045 4371.28 59.1439 4368.79 58.0227C4366.31 56.8864 4364.49 55.2424 4363.34 53.0909C4362.2 50.9394 4361.84 48.3258 4362.25 45.25H4370.54C4370.37 46.8712 4370.64 48.2197 4371.34 49.2955C4372.05 50.3712 4373.07 51.1742 4374.4 51.7045C4375.74 52.2348 4377.28 52.5 4379.04 52.5C4380.87 52.5 4382.53 52.2273 4384.02 51.6818C4385.5 51.1212 4386.72 50.3485 4387.65 49.3636C4388.61 48.3636 4389.19 47.197 4389.4 45.8636C4389.62 44.6667 4389.44 43.6667 4388.88 42.8636C4388.32 42.0606 4387.45 41.3939 4386.27 40.8636C4385.1 40.3182 4383.71 39.8333 4382.09 39.4091L4377.04 38.0455C4373.39 37.0455 4370.62 35.5455 4368.72 33.5455C4366.84 31.5455 4366.18 28.8788 4366.72 25.5455C4367.18 22.7879 4368.32 20.3864 4370.15 18.3409C4371.99 16.2803 4374.28 14.6818 4377.04 13.5455C4379.8 12.3939 4382.81 11.8182 4386.09 11.8182C4389.39 11.8182 4392.18 12.3939 4394.47 13.5455C4396.78 14.697 4398.46 16.303 4399.52 18.3636C4400.59 20.4091 4400.95 22.7803 4400.59 25.4773H4392.47ZM4437.7 12.4545H4446.13L4441.09 42.8636C4440.54 46.197 4439.27 49.1288 4437.27 51.6591C4435.29 54.1894 4432.76 56.1667 4429.68 57.5909C4426.6 59 4423.18 59.7045 4419.41 59.7045C4415.6 59.7045 4412.41 59 4409.82 57.5909C4407.23 56.1667 4405.35 54.1894 4404.2 51.6591C4403.07 49.1288 4402.77 46.197 4403.32 42.8636L4408.36 12.4545H4416.79L4411.86 42.1591C4411.54 44.0985 4411.69 45.8258 4412.29 47.3409C4412.91 48.8409 4413.93 50.0227 4415.34 50.8864C4416.76 51.75 4418.54 52.1818 4420.68 52.1818C4422.82 52.1818 4424.74 51.75 4426.45 50.8864C4428.16 50.0227 4429.57 48.8409 4430.66 47.3409C4431.75 45.8258 4432.45 44.0985 4432.77 42.1591L4437.7 12.4545ZM4481.42 27.3182C4481.25 26.0909 4480.95 24.9924 4480.51 24.0227C4480.07 23.0379 4479.48 22.2045 4478.74 21.5227C4478 20.8258 4477.1 20.2955 4476.03 19.9318C4474.97 19.5682 4473.74 19.3864 4472.33 19.3864C4469.83 19.3864 4467.46 20.0152 4465.22 21.2727C4462.97 22.5303 4461.06 24.3788 4459.47 26.8182C4457.88 29.2424 4456.79 32.197 4456.22 35.6818C4455.64 39.197 4455.67 42.1742 4456.31 44.6136C4456.94 47.053 4458.11 48.9091 4459.81 50.1818C4461.52 51.4394 4463.67 52.0682 4466.26 52.0682C4468.64 52.0682 4470.8 51.6136 4472.74 50.7045C4474.68 49.7955 4476.28 48.5076 4477.56 46.8409C4478.85 45.1591 4479.66 43.1894 4480.01 40.9318L4481.88 41.2273H4469.22L4470.35 34.6364H4489.24L4488.28 40.2273C4487.63 44.2273 4486.22 47.6818 4484.03 50.5909C4481.87 53.4848 4479.16 55.7197 4475.92 57.2955C4472.69 58.8561 4469.16 59.6364 4465.31 59.6364C4461.03 59.6364 4457.44 58.6742 4454.51 56.75C4451.6 54.8106 4449.54 52.0606 4448.33 48.5C4447.12 44.9242 4446.92 40.6818 4447.74 35.7727C4448.35 32.0152 4449.42 28.6591 4450.97 25.7045C4452.53 22.75 4454.44 20.2424 4456.69 18.1818C4458.97 16.1061 4461.49 14.5303 4464.26 13.4545C4467.03 12.3636 4469.94 11.8182 4472.99 11.8182C4475.55 11.8182 4477.88 12.197 4479.99 12.9545C4482.1 13.697 4483.9 14.7576 4485.4 16.1364C4486.91 17.5152 4488.07 19.1515 4488.88 21.0455C4489.68 22.9394 4490.06 25.0303 4490.01 27.3182H4481.42ZM4506.92 12.4545L4499.2 59H4490.76L4498.49 12.4545H4506.92ZM4505.77 59L4513.49 12.4545H4521.93L4518.65 32.1591H4540.22L4543.49 12.4545H4551.95L4544.22 59H4535.77L4539.04 39.2273H4517.47L4514.2 59H4505.77ZM4550.83 59L4558.56 12.4545H4588.83L4587.65 19.5227H4565.81L4563.72 32.1591H4583.99L4582.81 39.2273H4562.54L4560.45 51.9318H4582.47L4581.29 59H4550.83ZM4593.12 59H4584.12L4608.24 12.4545H4618.65L4627.33 59H4618.33L4612.08 22H4611.71L4593.12 59ZM4596.44 40.75H4620.99L4619.85 47.5227H4595.31L4596.44 40.75ZM4630.9 59L4638.63 12.4545H4656.08C4659.66 12.4545 4662.56 13.0758 4664.79 14.3182C4667.01 15.5606 4668.57 17.303 4669.44 19.5455C4670.32 21.7727 4670.51 24.3712 4670.01 27.3409C4669.53 30.3106 4668.47 32.8939 4666.83 35.0909C4665.21 37.2727 4663.07 38.9621 4660.4 40.1591C4657.75 41.3561 4654.63 41.9545 4651.06 41.9545H4638.63L4639.81 34.9545H4651.13C4653.22 34.9545 4654.98 34.6667 4656.4 34.0909C4657.82 33.5 4658.94 32.6439 4659.76 31.5227C4660.6 30.3864 4661.15 28.9924 4661.42 27.3409C4661.68 25.6894 4661.58 24.2803 4661.13 23.1136C4660.69 21.9318 4659.85 21.0379 4658.6 20.4318C4657.38 19.8106 4655.72 19.5 4653.63 19.5H4645.9L4639.33 59H4630.9ZM4658.44 37.9091L4666.47 59H4657.06L4649.24 37.9091H4658.44ZM4674.71 19.5227L4675.9 12.4545H4713.03L4711.85 19.5227H4697.46L4690.92 59H4682.56L4689.1 19.5227H4674.71Z" fill="#E9FF6B"/>
</svg>
